<svg width="30" height="30" viewBox="0 0 30 30" fill="none" xmlns="http://www.w3.org/2000/svg">
<rect width="30" height="30" rx="12" fill="#FF6700"/>
<g clip-path="url(#clip0_10_432)">
<path fill-rule="evenodd" clip-rule="evenodd" d="M13.3955 12.7891H9.81904C9.67844 12.7891 9.55542 12.6749 9.55542 12.5255C9.55542 12.3849 9.67844 12.2619 9.81904 12.2619H13.3955C13.5449 12.2619 13.6591 12.3849 13.6591 12.5255C13.6591 12.6749 13.5449 12.7891 13.3955 12.7891Z" fill="white"/>
<path fill-rule="evenodd" clip-rule="evenodd" d="M19.0633 12.9824C18.1934 12.9824 17.464 12.464 17.2092 11.6731C17.0334 11.6116 16.9016 11.4446 16.9016 11.2513V10.935C16.9016 10.7768 16.9807 10.645 17.1037 10.5659V10.2847C17.1037 10.1441 17.218 10.0211 17.3673 10.0211H20.768C20.9086 10.0211 21.0317 10.1441 21.0317 10.2847V10.5659C21.1459 10.645 21.2338 10.7768 21.2338 10.935V11.2513C21.2338 11.4446 21.102 11.6116 20.9262 11.6731C20.6626 12.464 19.942 12.9824 19.0633 12.9824ZM17.4289 11.1634C17.5431 11.1722 17.6397 11.2513 17.6661 11.3656C17.8155 12.0158 18.3779 12.4552 19.0633 12.4552C19.7575 12.4552 20.3199 12.0158 20.4605 11.3656C20.4868 11.2513 20.5923 11.1722 20.7065 11.1634V11.0141C20.5923 10.9877 20.5044 10.8822 20.5044 10.7592V10.5483H17.631V10.7592C17.631 10.8822 17.5431 10.9877 17.4289 11.0141V11.1634Z" fill="white"/>
<path fill-rule="evenodd" clip-rule="evenodd" d="M20.768 10.5483H17.3673C17.2883 10.5483 17.218 10.5132 17.1652 10.4605C17.1125 10.4077 17.0949 10.3286 17.1037 10.2496L17.3586 8.22847C17.3761 8.09666 17.4904 8 17.6222 8H20.5132C20.645 8 20.7505 8.09666 20.768 8.22847L21.0317 10.2496C21.0405 10.3286 21.0141 10.4077 20.9614 10.4605C20.9174 10.5132 20.8383 10.5483 20.768 10.5483Z" fill="white"/>
<path fill-rule="evenodd" clip-rule="evenodd" d="M22.6045 17.7188H19.0017L18.9842 17.4112L17.9473 13.3076C17.9297 13.2548 17.9121 13.2021 17.8857 13.1582C17.9912 13.1582 18.0615 13.1582 18.1494 13.246L19.0632 14.2654C19.2126 14.1072 19.9508 13.246 20.0474 13.1933C20.1705 13.1318 20.4956 13.1582 20.6889 13.1582C21.8928 13.1582 22.8682 14.1775 22.8682 15.4341V17.4552C22.8682 17.5958 22.7451 17.7188 22.6045 17.7188Z" fill="white"/>
<path fill-rule="evenodd" clip-rule="evenodd" d="M21.1723 17.7188C21.0229 17.7188 20.9087 17.5958 20.9087 17.4552V13.4833C20.9087 13.3427 21.0229 13.2197 21.1723 13.2197C21.3129 13.2197 21.4359 13.3427 21.4359 13.4833V17.4552C21.4359 17.5958 21.3129 17.7188 21.1723 17.7188Z" fill="white"/>
<path fill-rule="evenodd" clip-rule="evenodd" d="M17.7803 13.0351L17.9297 12.42C17.9648 12.2794 18.1142 12.2003 18.2548 12.2355C18.3954 12.2706 18.4833 12.4112 18.4481 12.5518L18.2109 13.4833C18.1845 13.58 18.1142 13.6415 18.0351 13.6678L17.9472 13.3075C17.9121 13.1933 17.8594 13.1054 17.7803 13.0351Z" fill="white"/>
<path fill-rule="evenodd" clip-rule="evenodd" d="M20.1793 13.6854C20.065 13.6854 19.9508 13.6063 19.9245 13.4833L19.6872 12.5518C19.652 12.4112 19.7399 12.2706 19.8805 12.2355C20.0211 12.2003 20.1617 12.2794 20.1969 12.42L20.4341 13.3603C20.4693 13.5009 20.3814 13.6415 20.2408 13.6766C20.2232 13.6854 20.1969 13.6854 20.1793 13.6854Z" fill="white"/>
<path fill-rule="evenodd" clip-rule="evenodd" d="M19.3796 20.5835C19.2302 20.5835 19.116 20.4605 19.116 20.3199V18.3866C19.116 18.2373 19.2302 18.123 19.3796 18.123C19.529 18.123 19.6432 18.2373 19.6432 18.3866V20.3199C19.6432 20.4605 19.529 20.5835 19.3796 20.5835Z" fill="white"/>
<path fill-rule="evenodd" clip-rule="evenodd" d="M11.0756 22.9912H9.59932C9.45872 22.9912 9.34448 22.877 9.34448 22.7364V21.8576H11.3392V22.7364C11.3392 22.877 11.2162 22.9912 11.0756 22.9912ZM17.2707 22.9912H15.7856C15.645 22.9912 15.5308 22.877 15.5308 22.7364V21.8576H17.5255V22.7364C17.5255 22.877 17.4113 22.9912 17.2707 22.9912Z" fill="white"/>
<path fill-rule="evenodd" clip-rule="evenodd" d="M18.167 21.6028H8.70304C8.58881 21.6028 8.49214 21.5325 8.457 21.4271L8.27246 20.8295C8.30761 20.8383 8.35155 20.8383 8.3867 20.8383H18.4834C18.5185 20.8383 18.5537 20.8383 18.5976 20.8295L18.4131 21.4271C18.3779 21.5325 18.2812 21.6028 18.167 21.6028Z" fill="white"/>
<path fill-rule="evenodd" clip-rule="evenodd" d="M18.4833 20.5835H8.38667C8.24607 20.5835 8.13184 20.4692 8.13184 20.3287V17.5518C8.13184 17.5343 8.13184 17.5079 8.14062 17.4816L9.17753 13.3691C9.21268 13.2548 9.30934 13.1758 9.43236 13.1758H17.4376C17.5607 13.1758 17.6573 13.2548 17.6837 13.3691L18.7294 17.4816V17.4991V17.5079V17.5167H18.7382V17.5518V20.3287C18.7382 20.4692 18.6239 20.5835 18.4833 20.5835ZM17.3058 17.6046H9.55539C9.48509 17.6046 9.41479 17.5694 9.36206 17.5079C9.31813 17.4464 9.30055 17.3673 9.31813 17.2882L10.1178 14.283C10.1529 14.1775 10.2496 14.1072 10.3638 14.1072H16.5062C16.6204 14.1072 16.7171 14.1775 16.7434 14.283L17.5431 17.2882C17.5694 17.3673 17.5519 17.4464 17.5079 17.5079C17.4552 17.5694 17.3849 17.6046 17.3058 17.6046ZM10.5308 19.8717C10.9614 19.8717 11.3129 19.529 11.3129 19.0896C11.3129 18.6591 10.9614 18.3163 10.5308 18.3163C10.1002 18.3163 9.73992 18.6591 9.73992 19.0896C9.73992 19.529 10.1002 19.8717 10.5308 19.8717ZM10.5308 18.6063C10.8032 18.6063 11.0317 18.8172 11.0317 19.0896C11.0317 19.3708 10.8032 19.5817 10.5308 19.5817C10.2584 19.5817 10.0299 19.3708 10.0299 19.0896C10.0299 18.8172 10.2584 18.6063 10.5308 18.6063ZM14.8717 19.6081C14.9508 19.6081 15.0123 19.5466 15.0123 19.4675C15.0123 19.3884 14.9508 19.3181 14.8717 19.3181H11.9983C11.9192 19.3181 11.8577 19.3884 11.8577 19.4675C11.8577 19.5466 11.9192 19.6081 11.9983 19.6081H14.8717ZM14.8717 18.8612C14.9508 18.8612 15.0123 18.7997 15.0123 18.7206C15.0123 18.6415 14.9508 18.58 14.8717 18.58H11.9983C11.9192 18.58 11.8577 18.6415 11.8577 18.7206C11.8577 18.7997 11.9192 18.8612 11.9983 18.8612H14.8717ZM16.3392 19.8717C16.7698 19.8717 17.1301 19.529 17.1301 19.0896C17.1301 18.6591 16.7698 18.3163 16.3392 18.3163C15.9086 18.3163 15.5484 18.6591 15.5484 19.0896C15.5484 19.529 15.9086 19.8717 16.3392 19.8717ZM16.3392 18.6063C16.6116 18.6063 16.8401 18.8172 16.8401 19.0896C16.8401 19.3708 16.6116 19.5817 16.3392 19.5817C16.0668 19.5817 15.8383 19.3708 15.8383 19.0896C15.8383 18.8172 16.0668 18.6063 16.3392 18.6063Z" fill="white"/>
</g>
<defs>
<clipPath id="clip0_10_432">
<rect width="15" height="15" fill="white" transform="translate(8 8)"/>
</clipPath>
</defs>
</svg>
