<svg width="29" height="29" viewBox="0 0 29 29" fill="none" xmlns="http://www.w3.org/2000/svg">
<rect y="-0.000457764" width="28.12" height="28.12" rx="12" fill="#FF6700"/>
<g clip-path="url(#clip0_10_268)">
<path d="M9.25616 11.892C9.25616 11.7303 9.12493 11.599 8.96324 11.599C8.15538 11.599 7.49866 12.2563 7.49866 13.0636V13.6495C7.49866 14.1339 7.89292 14.5282 8.37741 14.5282H8.96324C9.12493 14.5282 9.25616 14.397 9.25616 14.2353C9.25616 14.0736 9.12493 13.9424 8.96324 13.9424V12.1849C9.12493 12.1849 9.25616 12.0536 9.25616 11.892Z" fill="white"/>
<path d="M20.0941 11.599C19.9324 11.599 19.8011 11.7303 19.8011 11.892C19.8011 12.0536 19.9324 12.1849 20.0941 12.1849V13.9424C19.9324 13.9424 19.8011 14.0736 19.8011 14.2353C19.8011 14.397 19.9324 14.5282 20.0941 14.5282H20.6799C21.1644 14.5282 21.5586 14.1339 21.5586 13.6495V13.0636C21.5586 12.2563 20.9019 11.599 20.0941 11.599Z" fill="white"/>
<path d="M12.4783 19.8007C12.3166 19.8007 12.1854 19.9319 12.1854 20.0936H10.4279C10.4279 19.9319 10.2966 19.8007 10.135 19.8007C9.97327 19.8007 9.84204 19.9319 9.84204 20.0936V20.6795C9.84204 21.1639 10.2363 21.5582 10.7208 21.5582H11.8925C12.3769 21.5582 12.7712 21.1639 12.7712 20.6795V20.0936C12.7712 19.9319 12.64 19.8007 12.4783 19.8007Z" fill="white"/>
<path d="M18.9224 19.8007C18.7607 19.8007 18.6295 19.9319 18.6295 20.0936H16.872C16.872 19.9319 16.7407 19.8007 16.579 19.8007C16.4174 19.8007 16.2861 19.9319 16.2861 20.0936V20.6795C16.2861 21.1639 16.6804 21.5582 17.1649 21.5582H18.3365C18.821 21.5582 19.2153 21.1639 19.2153 20.6795V20.0936C19.2153 19.9319 19.0841 19.8007 18.9224 19.8007Z" fill="white"/>
<path d="M18.9224 7.49821H10.1349C9.32701 7.49821 8.67029 8.15551 8.67029 8.96279V18.922C8.67029 19.7292 9.32701 20.3865 10.1349 20.3865H18.9224C19.7302 20.3865 20.387 19.7292 20.387 18.922V8.96279C20.387 8.15551 19.7302 7.49821 18.9224 7.49821ZM11.3065 8.66987H17.7507C18.2352 8.66987 18.6295 9.06414 18.6295 9.54862C18.6295 10.0331 18.2352 10.4274 17.7507 10.4274H11.3065C10.8221 10.4274 10.4278 10.0331 10.4278 9.54862C10.4278 9.06414 10.8221 8.66987 11.3065 8.66987ZM11.3065 18.629C10.8221 18.629 10.4278 18.2348 10.4278 17.7503C10.4278 17.2658 10.8221 16.8715 11.3065 16.8715C11.791 16.8715 12.1853 17.2658 12.1853 17.7503C12.1853 18.2348 11.791 18.629 11.3065 18.629ZM17.7507 18.629C17.2662 18.629 16.872 18.2348 16.872 17.7503C16.872 17.2658 17.2662 16.8715 17.7507 16.8715C18.2352 16.8715 18.6295 17.2658 18.6295 17.7503C18.6295 18.2348 18.2352 18.629 17.7507 18.629ZM19.2153 14.8211C19.2153 15.3056 18.821 15.6999 18.3365 15.6999H10.7207C10.2362 15.6999 9.84195 15.3056 9.84195 14.8211V11.892C9.84195 11.4075 10.2362 11.0132 10.7207 11.0132H18.3365C18.821 11.0132 19.2153 11.4075 19.2153 11.892V14.8211Z" fill="white"/>
</g>
<defs>
<clipPath id="clip0_10_268">
<rect width="14.06" height="14.06" fill="white" transform="translate(7.49866 7.49821)"/>
</clipPath>
</defs>
</svg>
